<svg width="579" height="320" viewBox="0 0 579 320" fill="none" xmlns="http://www.w3.org/2000/svg">
    <path d="M0.515381 310.525V310.245H191.146V310.525H0.515381Z" fill="#3F3D56" stroke="black" />
    <path d="M20.8023 311.624L20.4378 310.824C20.358 310.648 12.4921 293.038 17.5964 276.013C22.701 258.987 38.964 248.589 39.1274 248.487L39.8725 248.018L40.2367 248.818C40.3166 248.994 48.1822 266.604 43.0781 283.629C37.9736 300.655 21.7105 311.052 21.5471 311.155L20.8023 311.624ZM19.0686 276.453C14.7526 290.847 20.028 305.702 21.4851 309.346C24.7068 307.098 37.2945 297.57 41.606 283.189C45.9169 268.809 40.6449 253.943 39.1895 250.296C35.9658 252.544 23.3798 262.073 19.0686 276.453Z" fill="#3F3D56" />
    <path d="M25.5039 277.233C29.7803 294.4 21.0865 311.337 21.0865 311.337C21.0865 311.337 5.45926 300.44 1.18289 283.273C-3.09348 266.106 5.60035 249.169 5.60035 249.169C5.60035 249.169 21.2276 260.066 25.5039 277.233Z" fill="#EF1247" />
    <path d="M519.877 256.613H141.743C140.723 256.612 139.746 256.207 139.025 255.488C138.304 254.768 137.899 253.792 137.897 252.774V20.4778C137.899 19.4598 138.304 18.4838 139.025 17.764C139.746 17.0442 140.723 16.6393 141.743 16.6382H519.877C520.896 16.6393 521.874 17.0442 522.594 17.764C523.315 18.4838 523.721 19.4598 523.722 20.4778V252.774C523.721 253.792 523.315 254.768 522.594 255.488C521.874 256.207 520.896 256.612 519.877 256.613ZM141.743 17.9181C141.063 17.9188 140.412 18.1888 139.931 18.6686C139.45 19.1485 139.18 19.7991 139.179 20.4778V252.774C139.18 253.452 139.45 254.103 139.931 254.583C140.412 255.063 141.063 255.333 141.743 255.334H519.877C520.556 255.333 521.208 255.063 521.689 254.583C522.169 254.103 522.44 253.452 522.44 252.774V20.4778C522.439 19.7991 522.169 19.1485 521.689 18.6686C521.208 18.1887 520.556 17.9188 519.877 17.9181H141.743Z" fill="#3F3D56" />
    <path d="M521.767 3.94155e-05H139.852C138.998 -0.00418019 138.177 0.330548 137.57 0.930598C136.963 1.53065 136.62 2.34687 136.616 3.19971V24.9575H525.004V3.19971C525 2.34687 524.656 1.53065 524.049 0.930598C523.442 0.330548 522.621 -0.00418019 521.767 3.94155e-05Z" fill="#EF1247" />
    <path d="M478.34 16.1203C480.531 16.1203 482.307 14.3466 482.307 12.1588C482.307 9.97089 480.531 8.19727 478.34 8.19727C476.149 8.19727 474.372 9.97089 474.372 12.1588C474.372 14.3466 476.149 16.1203 478.34 16.1203Z" fill="#D0CDE1" />
    <path d="M491.036 16.1203C493.227 16.1203 495.003 14.3466 495.003 12.1588C495.003 9.97089 493.227 8.19727 491.036 8.19727C488.845 8.19727 487.068 9.97089 487.068 12.1588C487.068 14.3466 488.845 16.1203 491.036 16.1203Z" fill="#D0CDE1" />
    <path d="M503.732 16.1203C505.923 16.1203 507.699 14.3466 507.699 12.1588C507.699 9.97089 505.923 8.19727 503.732 8.19727C501.541 8.19727 499.764 9.97089 499.764 12.1588C499.764 14.3466 501.541 16.1203 503.732 16.1203Z" fill="#D0CDE1" />
    <path d="M341.064 190.7H162.893V60.1538H341.064V190.7ZM164.175 189.42H339.782V61.4337H164.175V189.42Z" fill="#3F3D56" />
    <path d="M423.741 91.5107H382.723V98.55H423.741V91.5107Z" fill="#280D62" />
    <path d="M457.709 158.063H416.691V165.103H457.709V158.063Z" fill="#280D62" />
    <path d="M498.086 111.988H382.723V119.028H498.086V111.988Z" fill="#280D62" />
    <path d="M498.086 123.507H382.723V130.547H498.086V123.507Z" fill="#280D62" />
    <path d="M498.086 135.026H382.723V142.065H498.086V135.026Z" fill="#280D62" />
    <path d="M495.174 230.71C498.529 227.788 503.943 225.03 508.307 223.415C503.943 221.798 498.529 219.04 495.174 216.119L497.539 222.648H485.268V224.182H497.539L495.174 230.71Z" fill="#3F3D56" />
    <path d="M579 255H94V257H579V255Z" fill="#3F3D56" />
    <path d="M291.541 97.7896H214.98V169.265H291.541V97.7896Z" fill="#EF1247" />
    <path d="M261.299 95.8784H245.221V171.559H261.299V95.8784Z" fill="#2A0C7E" />
    <path d="M250.955 81.5629C256.089 85.9622 254.517 96.1998 254.517 96.1998C254.517 96.1998 244.621 99.3045 239.487 94.9052C234.353 90.5058 235.926 80.2683 235.926 80.2683C235.926 80.2683 245.822 77.1635 250.955 81.5629Z" fill="#2A0C7E" />
    <path d="M267.998 93.9384C263.608 99.0782 253.35 97.5403 253.35 97.5403C253.35 97.5403 250.21 87.6691 254.6 82.5294C258.99 77.3896 269.248 78.9275 269.248 78.9275C269.248 78.9275 272.388 88.7986 267.998 93.9384Z" fill="#2A0C7E" />
    <path d="M65.628 294.69L66.2689 300.449L60.5007 299.809V292.77L65.628 294.69Z" fill="#FFB8B8" />
    <path d="M125.873 294.69L125.232 300.449L131 299.809V292.77L125.873 294.69Z" fill="#FFB8B8" />
    <path d="M64.987 170.542L62.4234 236.456C62.4234 236.456 54.0917 285.731 56.0144 287.01C57.9371 288.29 56.0144 295.33 56.0144 295.33L66.9098 296.609C66.9098 296.609 66.9098 291.49 69.4734 289.57C72.037 287.65 95.7505 197.42 95.7505 197.42L120.105 284.451C120.105 284.451 119.464 289.57 121.387 289.57C123.309 289.57 123.95 296.609 123.95 296.609H134.846V289.57C134.846 289.57 138.05 288.93 136.127 283.811C134.205 278.691 127.155 170.542 127.155 170.542H64.987Z" fill="#280D62" />
    <path d="M61.7825 294.69C61.7825 294.69 58.578 292.77 57.2962 294.05C56.0144 295.33 45.7599 308.128 45.7599 308.128C45.7599 308.128 31.66 317.087 44.4781 319.647C57.2962 322.207 66.9098 310.048 67.5507 308.768C68.1916 307.488 66.9098 297.249 66.2689 298.529C65.628 299.809 63.7053 299.169 63.0643 298.529C62.4234 297.889 61.7825 294.69 61.7825 294.69Z" fill="#280D62" />
    <path d="M129.718 294.69C129.718 294.69 132.923 292.77 134.205 294.05C135.487 295.33 145.741 308.128 145.741 308.128C145.741 308.128 159.841 317.087 147.023 319.647C134.205 322.207 124.591 310.048 123.95 308.768C123.309 307.488 124.591 297.249 125.232 298.529C125.873 299.809 127.796 299.169 128.437 298.529C129.078 297.889 129.718 294.69 129.718 294.69Z" fill="#280D62" />
    <path d="M103.762 75.832C111.018 75.832 116.9 69.9586 116.9 62.7134C116.9 55.4681 111.018 49.5947 103.762 49.5947C96.5056 49.5947 90.6232 55.4681 90.6232 62.7134C90.6232 69.9586 96.5056 75.832 103.762 75.832Z" fill="#FFB8B8" />
    <path d="M95.1096 70.0726L93.1869 89.9105L108.569 93.1102L112.414 69.4326L95.1096 70.0726Z" fill="#FFB8B8" />
    <path d="M111.132 85.4309C111.132 85.4309 107.287 93.7501 93.1869 84.791L66.9098 170.542C66.9098 170.542 102.16 191.66 124.591 175.662L116.9 89.2706L111.132 85.4309Z" fill="#500AC0" />
    <path d="M95.7505 75.8324L83.5733 73.9126L82.2915 82.2317C82.2915 82.2317 65.628 84.1515 63.7053 90.5509L65.628 137.906C65.628 137.906 59.8598 148.145 64.9871 154.544C64.9871 154.544 56.6553 171.823 63.0643 175.022C63.0643 175.022 77.8052 167.983 86.7778 169.903C86.7778 169.903 91.9051 168.623 91.9051 164.783C91.9051 160.944 95.7505 75.8324 95.7505 75.8324Z" fill="#2A0C7E" />
    <path d="M110.491 77.1118L117.541 79.0316L118.182 87.9907C118.182 87.9907 135.487 98.8696 136.127 105.269C136.768 111.668 123.309 142.385 123.309 142.385C123.309 142.385 128.437 151.344 126.514 157.104C126.514 157.104 134.846 173.742 129.718 178.221C129.718 178.221 120.105 180.781 118.823 176.942C117.541 173.102 106.005 128.946 111.132 107.829C111.132 107.829 106.005 80.9514 110.491 77.1118Z" fill="#2A0C7E" />
    <path d="M117.862 97.9526H117.62V91.3541C117.62 90.8526 117.522 90.356 117.329 89.8927C117.137 89.4293 116.855 89.0083 116.5 88.6537C116.145 88.2991 115.723 88.0178 115.259 87.8258C114.795 87.6339 114.298 87.5352 113.796 87.5352H99.7948C99.2925 87.5352 98.7951 87.6339 98.3311 87.8258C97.867 88.0178 97.4454 88.2991 97.0902 88.6537C96.7351 89.0083 96.4533 89.4293 96.2611 89.8927C96.0689 90.356 95.97 90.8526 95.97 91.3541V127.554C95.97 128.055 96.0689 128.552 96.2611 129.015C96.4533 129.478 96.7351 129.899 97.0902 130.254C97.4454 130.609 97.867 130.89 98.3311 131.082C98.7951 131.274 99.2925 131.373 99.7948 131.373H113.796C114.298 131.373 114.795 131.274 115.259 131.082C115.723 130.89 116.145 130.609 116.5 130.254C116.855 129.899 117.137 129.478 117.329 129.015C117.522 128.552 117.62 128.055 117.62 127.554V102.649H117.862V97.9526Z" fill="#3F3D56" />
    <path d="M123.95 123.827C123.95 123.827 118.823 107.189 111.132 112.308C103.441 117.428 116.259 131.506 116.259 131.506L123.95 123.827Z" fill="#FFB8B8" />
    <path d="M88.7006 111.668C88.7006 111.668 97.6732 100.789 102.16 105.909C106.646 111.028 94.4687 122.547 94.4687 122.547L88.7006 111.668Z" fill="#FFB8B8" />
    <path d="M65.628 89.9108C65.628 89.9108 62.4235 89.2709 60.5007 95.0303C58.578 100.79 51.5281 122.547 51.5281 126.387C51.5281 130.227 54.0917 145.585 68.1916 143.025C82.2915 140.466 98.955 122.547 98.955 122.547L89.9823 109.109L70.7552 120.628L65.628 89.9108Z" fill="#2A0C7E" />
    <path opacity="0.1" d="M68.3973 106.501L71.0757 120.307L90.9437 108.789L72.3575 115.828L68.2595 105.677L68.3973 106.501Z" fill="black" />
    <path opacity="0.1" d="M124.912 120.308L127.475 122.228L128.757 113.269L124.912 120.308Z" fill="black" />
    <path opacity="0.1" d="M65.3075 144.625C65.3075 144.625 84.1326 139.511 92.9858 128.31C92.9858 128.31 83.8937 143.345 65.3075 144.625Z" fill="black" />
    <path opacity="0.1" d="M112.734 133.106C112.734 133.106 116.698 152.477 126.894 153.031C126.894 153.031 114.657 156.784 112.734 133.106Z" fill="black" />
    <path d="M133.564 102.709C133.564 102.709 135.487 103.989 136.768 109.749C138.05 115.508 146.382 137.266 143.177 142.385C139.973 147.505 134.846 159.024 123.95 151.344L113.055 131.507L123.95 121.268L128.437 124.467L133.564 102.709Z" fill="#2A0C7E" />
    <path d="M91.1488 66.0407C91.1488 66.0407 80.1298 48.2093 91.8665 47.2819C95.7832 47.0084 99.6077 45.9678 103.122 44.2197C107.012 42.243 111.91 40.7405 114.516 43.7834C115.653 45.1748 116.979 46.4012 118.455 47.4272C120.744 48.9431 123.393 51.4005 121.926 54.0365L119.522 58.3579L116.155 67.0009C116.939 63.273 116.959 60.1429 114.953 58.598C114.953 58.598 103.762 63.3534 98.1218 54.7567C91.8082 50.0268 89.7995 64.9145 91.1488 66.0407Z" fill="#2F2E41" />
    <path d="M106.966 103.669C108.736 103.669 110.171 102.237 110.171 100.47C110.171 98.7026 108.736 97.27 106.966 97.27C105.196 97.27 103.762 98.7026 103.762 100.47C103.762 102.237 105.196 103.669 106.966 103.669Z" fill="#6C63FF" />
</svg>